<?xml version="1.0" encoding="UTF-8"?>
<svg xmlns="http://www.w3.org/2000/svg" xmlns:xlink="http://www.w3.org/1999/xlink" width="240pt" height="240pt" viewBox="0 0 240 240" version="1.1">
<g id="surface2356861">
<path style=" stroke:none;fill-rule:nonzero;fill:rgb(100%,100%,100%);fill-opacity:1;" d="M 120 240 C 53.726562 240 0 186.273438 0 120 C 0 53.726562 53.726562 0 120 0 C 186.273438 0 240 53.726562 240 120 C 240 186.273438 186.273438 240 120 240 Z M 120 240 "/>
<path style=" stroke:none;fill-rule:nonzero;fill:rgb(24.705882%,31.764707%,70.980394%);fill-opacity:1;" d="M 192 172 C 192 183.046875 183.046875 192 172 192 L 68 192 C 56.957031 192 48 183.046875 48 172 L 48 68 C 48 56.953125 56.957031 48 68 48 L 172 48 C 183.046875 48 192 56.953125 192 68 Z M 192 172 "/>
<path style=" stroke:none;fill-rule:nonzero;fill:rgb(100%,100%,100%);fill-opacity:1;" d="M 161.472656 124 L 148 124 L 148 176 L 128 176 L 128 124 L 116 124 L 116 108 L 128 108 L 128 98.359375 C 128.007812 84.328125 133.835938 76 150.367188 76 L 164 76 L 164 92 L 154.851562 92 C 148.414062 92 148 94.398438 148 98.890625 L 148 108 L 164 108 Z M 161.472656 124 "/>
</g>
</svg>
