<?xml version="1.0" encoding="UTF-8"?>
<svg xmlns="http://www.w3.org/2000/svg" xmlns:xlink="http://www.w3.org/1999/xlink" width="500pt" height="500pt" viewBox="0 0 500 500" version="1.1">
<g id="surface5337203">
<path style=" stroke:none;fill-rule:nonzero;fill:rgb(100%,100%,100%);fill-opacity:1;" d="M 30 40 C 13.476562 40 0 53.476562 0 70 L 0 330.9375 C 14.648438 252.96875 31.054688 165.507812 31.875 161.25 C 36.953125 135.351562 56.484375 120 84.375 120 L 470 120 L 470 110 C 470 93.476562 456.523438 80 440 80 L 180.3125 80 C 177.539062 78.984375 171.835938 69.921875 168.75 65 C 161.054688 52.734375 153.164062 40 140 40 Z M 84.375 140 C 71.5625 140 55.625 144.492188 51.5625 165.3125 C 50.273438 171.796875 11.328125 379.101562 0 439.375 L 0 440 C 0 456.523438 13.476562 470 30 470 L 420 470 C 436.210938 470 449.453125 457.03125 450 440.9375 L 499.6875 171.875 L 500 170 C 500 153.476562 486.523438 140 470 140 Z M 84.375 140 "/>
</g>
</svg>
