<?xml version="1.0" encoding="UTF-8"?>
<svg xmlns="http://www.w3.org/2000/svg" xmlns:xlink="http://www.w3.org/1999/xlink" width="208pt" height="208pt" viewBox="0 0 208 208" version="1.1">
<g id="surface10915944">
<rect x="0" y="0" width="208" height="208" style="fill:rgb(1.568628%,2.745098%,12.941177%);fill-opacity:1;stroke:none;"/>
<path style=" stroke:none;fill-rule:nonzero;fill:rgb(100%,100%,100%);fill-opacity:1;" d="M 98.5 0 C 83.40625 0.03125 84.53125 4.0625 92.5 12 L 118.25 37.75 L 74 82 C 64.84375 91.15625 64.84375 105.84375 74 115 L 93.5 134.25 C 102.65625 143.375 117.34375 143.40625 126.5 134.25 L 170.75 90.25 L 196 115.5 C 204.8125 124.3125 208 124.59375 208 109.5 L 208 27.25 C 208 -0.25 208.28125 0 180.75 0 Z M 39 40 C 17.46875 40 0 57.46875 0 79 L 0 169 C 0 190.53125 17.46875 208 39 208 L 129 208 C 150.53125 208 168 190.53125 168 169 L 168 118 L 144 142 L 144 169 C 144 177.28125 137.28125 184 129 184 L 39 184 C 30.71875 184 24 177.28125 24 169 L 24 79 C 24 70.71875 30.71875 64 39 64 L 66.5 64 L 90.5 40 Z M 39 40 "/>
</g>
</svg>
