<?xml version="1.0" encoding="utf-8"?>
<!-- Generator: Adobe Illustrator 22.1.0, SVG Export Plug-In . SVG Version: 6.00 Build 0)  -->
<svg version="1.1" id="Layer_1" xmlns="http://www.w3.org/2000/svg" xmlns:xlink="http://www.w3.org/1999/xlink" x="0px" y="0px"
	 width="1319.1px" height="506.6px" viewBox="0 0 1319.1 506.6" style="enable-background:new 0 0 1319.1 506.6;"
	 xml:space="preserve">
<style type="text/css">
	.st0{fill:none;}
	.st1{fill:none;stroke:#000000;stroke-linecap:round;stroke-linejoin:round;}
	.st2{fill:url(#Wave_Pattern_-_1_1_);}
	.st3{fill:url(#Dot_Pattern_-_1_1_);}
</style>
<pattern  y="670.2" width="7" height="7" patternUnits="userSpaceOnUse" id="Small_Dots" viewBox="0 -7 7 7" style="overflow:visible;">
	<g>
		<rect y="-7" class="st0" width="7" height="7"/>
		<rect y="-7" class="st0" width="7" height="7"/>
		<circle cx="3.5" cy="-3.5" r="1.4"/>
	</g>
</pattern>
<pattern  y="670.2" width="389" height="387.4" patternUnits="userSpaceOnUse" id="Wave" viewBox="389.5 -470.2 389 387.4" style="overflow:visible;">
	<g>
		<rect x="389.5" y="-470.2" class="st0" width="389" height="387.4"/>
		<rect x="389.5" y="-470.2" class="st0" width="389" height="387.4"/>
		<path class="st1" d="M778.5-502c9.4,11.1,99,107.8,206.8,0s176.8-6.6,182.2,0"/>
		<path class="st1" d="M389.5-502c9.4,11.1,99,107.8,206.8,0s176.8-6.6,182.2,0"/>
		<path class="st1" d="M0.5-502c9.4,11.1,99,107.8,206.8,0s176.8-6.6,182.2,0"/>
		<path class="st1" d="M778.5-438.4c9.4,11.1,99,107.8,206.8,0s176.8-6.6,182.2,0"/>
		<path class="st1" d="M778.5-405.1c9.4,11.1,99,107.8,206.8,0s176.8-6.6,182.2,0"/>
		<path class="st1" d="M778.5-468.7c9.4,11.1,99,107.8,206.8,0s176.8-6.6,182.2,0"/>
		<path class="st1" d="M389.5-438.4c9.4,11.1,99,107.8,206.8,0s176.8-6.6,182.2,0"/>
		<path class="st1" d="M389.5-405.1c9.4,11.1,99,107.8,206.8,0s176.8-6.6,182.2,0"/>
		<path class="st1" d="M389.5-468.7c9.4,11.1,99,107.8,206.8,0s176.8-6.6,182.2,0"/>
		<path class="st1" d="M0.5-438.4c9.4,11.1,99,107.8,206.8,0s176.8-6.6,182.2,0"/>
		<path class="st1" d="M0.5-405.1c9.4,11.1,99,107.8,206.8,0s176.8-6.7,182.2,0"/>
		<path class="st1" d="M0.5-468.7c9.4,11.1,99,107.8,206.8,0s176.8-6.6,182.2,0"/>
		<path class="st1" d="M778.5-341.5c9.4,11.1,99,107.8,206.8,0s176.8-6.6,182.2,0"/>
		<path class="st1" d="M778.5-308.3c9.4,11.1,99,107.8,206.8,0s176.8-6.6,182.2,0"/>
		<path class="st1" d="M778.5-371.8c9.4,11.1,99,107.8,206.8,0s176.8-6.6,182.2,0"/>
		<path class="st1" d="M389.5-341.5c9.4,11.1,99,107.8,206.8,0s176.8-6.6,182.2,0"/>
		<path class="st1" d="M389.5-308.3c9.4,11.1,99,107.8,206.8,0s176.8-6.6,182.2,0"/>
		<path class="st1" d="M389.5-371.8c9.4,11.1,99,107.8,206.8,0s176.8-6.6,182.2,0"/>
		<path class="st1" d="M0.5-341.5c9.4,11.1,99,107.8,206.8,0s176.8-6.6,182.2,0"/>
		<path class="st1" d="M0.5-308.3c9.4,11.1,99,107.8,206.8,0s176.8-6.6,182.2,0"/>
		<path class="st1" d="M0.5-371.8c9.4,11.1,99,107.8,206.8,0s176.8-6.6,182.2,0"/>
		<path class="st1" d="M778.5-244.7c9.4,11.1,99,107.8,206.8,0s176.8-6.6,182.2,0"/>
		<path class="st1" d="M778.5-211.4c9.4,11.1,99,107.8,206.8,0s176.8-6.6,182.2,0"/>
		<path class="st1" d="M778.5-275c9.4,11.1,99,107.8,206.8,0s176.8-6.6,182.2,0"/>
		<path class="st1" d="M389.5-244.7c9.4,11.1,99,107.8,206.8,0s176.8-6.6,182.2,0"/>
		<path class="st1" d="M389.5-211.4c9.4,11.1,99,107.8,206.8,0s176.8-6.6,182.2,0"/>
		<path class="st1" d="M389.5-275c9.4,11.1,99,107.8,206.8,0s176.8-6.6,182.2,0"/>
		<path class="st1" d="M0.5-244.7c9.4,11.1,99,107.8,206.8,0s176.8-6.6,182.2,0"/>
		<path class="st1" d="M0.5-211.4c9.4,11.1,99,107.8,206.8,0s176.8-6.6,182.2,0"/>
		<path class="st1" d="M0.5-275c9.4,11.1,99,107.8,206.8,0s176.8-6.6,182.2,0"/>
		<path class="st1" d="M778.5-147.8c9.4,11.1,99,107.8,206.8,0s176.8-6.6,182.2,0"/>
		<path class="st1" d="M778.5-114.6c9.4,11.1,99,107.8,206.8,0s176.8-6.6,182.2,0"/>
		<path class="st1" d="M778.5-178.1c9.4,11.2,99,107.8,206.8,0s176.8-6.6,182.2,0"/>
		<path class="st1" d="M389.5-147.8c9.4,11.1,99,107.8,206.8,0s176.8-6.6,182.2,0"/>
		<path class="st1" d="M389.5-114.6c9.4,11.1,99,107.8,206.8,0s176.8-6.6,182.2,0"/>
		<path class="st1" d="M389.5-178.1c9.4,11.2,99,107.8,206.8,0s176.8-6.6,182.2,0"/>
		<path class="st1" d="M0.5-147.8c9.4,11.1,99,107.8,206.8,0s176.8-6.6,182.2,0"/>
		<path class="st1" d="M0.5-114.6c9.4,11.1,99,107.8,206.8,0s176.8-6.6,182.2,0"/>
		<path class="st1" d="M0.5-178.1c9.4,11.2,99,107.8,206.8,0s176.8-6.6,182.2,0"/>
		<path class="st1" d="M778.5-51c9.4,11.1,99,107.8,206.8,0s176.8-6.6,182.2,0"/>
		<path class="st1" d="M778.5-81.3c9.4,11.2,99,107.8,206.8,0s176.8-6.6,182.2,0"/>
		<path class="st1" d="M389.5-51c9.4,11.1,99,107.8,206.8,0s176.8-6.6,182.2,0"/>
		<path class="st1" d="M389.5-81.3c9.4,11.2,99,107.8,206.8,0s176.8-6.6,182.2,0"/>
		<path class="st1" d="M0.5-51c9.4,11.1,99,107.8,206.8,0s176.8-6.6,182.2,0"/>
		<path class="st1" d="M0.5-81.3c9.4,11.2,99,107.8,206.8,0s176.8-6.6,182.2,0"/>
	</g>
</pattern>
<title>dot-wave-sec-1</title>
<g id="Hero">
	<pattern  id="Wave_Pattern_-_1_1_" xlink:href="#Small_Dots" patternTransform="matrix(1 0 0 -1 -4 -17199.7461)">
	</pattern>
	<path id="Wave_Pattern_-_1" class="st2" d="M25.1,170.4l1254.3,254.8c17,3.5,33.5-7.5,37-24.4c0.4-1.9,0.6-3.9,0.6-5.9l2.1-194.8
		c0.2-15.8-11.4-29.2-27-31.4L75.9,0.3c-14.6-2-28.6,6.4-33.7,20.1L2,128.8c-6,16.2,2.2,34.3,18.5,40.3
		C22,169.7,23.5,170.1,25.1,170.4z"/>
</g>
<pattern  id="Dot_Pattern_-_1_1_" xlink:href="#Wave" patternTransform="matrix(0.9733 -0.2297 -0.2297 -0.9733 -2205.2664 -19770.041)">
</pattern>
<path id="Dot_Pattern_-_1" class="st3" d="M323.6,445.9l458.6,61.5c24.2,3.2,48.7,2.4,72.6-2.5l384.2-90.1
	c41.2-9.7,66.6-51,56.6-92.1l-23.4-96.4c-8.5-34.9-40.1-59.1-76-58.2L252,193c-37.1,1.2-66.2,32.2-65.1,69.3c0.1,4.7,0.8,9.4,1.9,14
	l15.5,62.6C218.3,395.7,265.7,438.2,323.6,445.9z"/>
</svg>
